<svg width="414" height="907" viewBox="0 0 414 907" fill="none" xmlns="http://www.w3.org/2000/svg">
<rect width="416.826" height="907" fill="#009FE3"/>
<g clip-path="url(#clip0_691_69)">
<path d="M278.027 530.981C278.027 530.981 373.397 456.678 453.573 456.678C533.748 456.678 578.2 518.303 578.2 518.303C578.2 647.33 388.753 691.943 388.753 691.943L278.027 530.981Z" fill="#E2A700"/>
<path fill-rule="evenodd" clip-rule="evenodd" d="M275.764 790.158C275.764 790.158 351.899 789.034 388.592 813.588C425.285 838.142 424.962 911.161 424.962 911.161L263.156 911.481L275.764 790.158Z" fill="#009EE2"/>
<path d="M501.096 757.099V572.706L459.23 539.647L430.619 550.078V517.019L377.115 474.812V767.53L501.096 757.099Z" fill="#E2A700"/>
<path d="M377.439 772.665L377.115 767.53V474.812L357.88 485.404V503.218L341.554 494.231L329.915 500.65V772.184L377.439 772.665Z" fill="#E2A700"/>
<path d="M354 484.602L377.115 474.812V767.53L377.438 772.665L357.879 772.505L354 484.602Z" fill="#B78900"/>
<path d="M341.554 772.344L302.921 785.343V513.809L339.452 492.144L341.554 772.344Z" fill="#B78900"/>
<path d="M430.619 763.036L395.704 765.925V489.416L430.619 517.019C430.619 545.585 430.619 722.756 430.619 763.036Z" fill="#B78900"/>
<path d="M506.43 747.149C506.43 747.149 506.269 747.149 506.107 746.828L508.532 744.421C507.885 743.779 507.238 743.137 447.269 728.854C417.849 721.793 388.269 714.892 387.945 714.892L387.137 718.102C433.367 729.014 503.036 745.704 506.43 747.149Z" fill="#E2A700"/>
<path d="M388.061 698.11L387.177 701.364L504.93 733.201L505.813 729.947L388.061 698.11Z" fill="#E2A700"/>
<path d="M393.612 681.596L392.556 684.799L489.088 716.491L490.143 713.288L393.612 681.596Z" fill="#E2A700"/>
<path d="M392.338 663.91L391.165 667.072L488.95 702.963L490.124 699.801L392.338 663.91Z" fill="#E2A700"/>
<path d="M393.988 647.854L392.717 650.98L488.903 689.664L490.174 686.539L393.988 647.854Z" fill="#E2A700"/>
<path d="M394.388 632.178L393.041 635.272L488.831 676.542L490.179 673.449L394.388 632.178Z" fill="#E2A700"/>
<path d="M392.54 614.63L391.076 617.67L488.866 664.256L490.331 661.216L392.54 614.63Z" fill="#E2A700"/>
<path d="M394.414 599.688L392.87 602.689L489.388 651.818L490.933 648.817L394.414 599.688Z" fill="#E2A700"/>
<path d="M394.444 581.672L392.788 584.614L489.226 638.298L490.881 635.356L394.444 581.672Z" fill="#E2A700"/>
<path d="M393.434 561.094L391.656 563.965L488.92 623.54L490.698 620.669L393.434 561.094Z" fill="#E2A700"/>
<path d="M393.895 541.518L392.019 544.327L489.464 608.681L491.34 605.872L393.895 541.518Z" fill="#E2A700"/>
<path d="M394.452 519.673L392.503 522.433L490.46 590.867L492.409 588.108L394.452 519.673Z" fill="#E2A700"/>
<path d="M496.246 744.421C496.246 744.421 496.085 744.421 495.923 744.1L498.348 741.692C497.701 741.051 507.4 743.137 447.43 728.854C418.011 721.793 388.43 714.892 388.107 714.892L387.298 718.102C433.367 729.014 492.852 742.976 496.246 744.421Z" fill="#E2A700"/>
<path d="M494.953 730.94L495.762 727.57L388.107 698.202L387.137 701.412L494.953 730.94Z" fill="#E2A700"/>
<path d="M393.612 681.596L392.556 684.799L489.088 716.491L490.143 713.288L393.612 681.596Z" fill="#E2A700"/>
<path d="M392.338 663.91L391.165 667.072L488.95 702.963L490.124 699.801L392.338 663.91Z" fill="#E2A700"/>
<path d="M393.988 647.854L392.717 650.98L488.903 689.664L490.174 686.539L393.988 647.854Z" fill="#E2A700"/>
<path d="M394.388 632.178L393.041 635.272L488.831 676.542L490.179 673.449L394.388 632.178Z" fill="#E2A700"/>
<path d="M392.54 614.63L391.076 617.67L488.866 664.256L490.331 661.216L392.54 614.63Z" fill="#E2A700"/>
<path d="M394.414 599.688L392.87 602.689L489.388 651.818L490.933 648.817L394.414 599.688Z" fill="#E2A700"/>
<path d="M394.444 581.672L392.788 584.614L489.226 638.298L490.881 635.356L394.444 581.672Z" fill="#E2A700"/>
<path d="M393.434 561.094L391.656 563.965L488.92 623.54L490.698 620.669L393.434 561.094Z" fill="#E2A700"/>
<path d="M393.895 541.518L392.019 544.327L489.464 608.681L491.34 605.872L393.895 541.518Z" fill="#E2A700"/>
<path d="M394.452 519.673L392.503 522.433L490.46 590.867L492.409 588.108L394.452 519.673Z" fill="#E2A700"/>
<path d="M-35.8849 526.487C70.8 478.824 208.844 623.097 208.844 623.097L160.836 905.865L-33.6219 913.247L-35.8849 526.487Z" fill="#A77E00"/>
<path d="M35.5617 620.69C31.8439 620.69 28.2878 619.406 25.0549 616.999C20.2056 613.147 16.9727 607.209 16.4878 600.309L14.7097 578.002C14.2248 571.101 16.3261 564.521 20.8521 560.028C24.4083 556.497 28.9344 554.571 33.622 554.732L65.6275 556.176C75.1645 556.658 83.085 565.324 83.8932 576.557L85.1864 591.964C85.9946 603.197 79.3672 613.308 69.8302 614.912L38.3097 620.208C37.3398 620.529 36.5316 620.69 35.5617 620.69ZM32.8138 556.658C28.9344 556.658 25.0549 558.263 22.1453 561.312C18.1042 565.484 16.1645 571.422 16.6494 577.841L18.4275 600.148C18.9124 606.407 21.822 612.024 26.348 615.394C29.9042 618.122 33.9453 619.245 37.9864 618.443L69.507 613.147C78.0741 611.703 84.2166 602.395 83.4083 592.124L82.1152 576.718C81.307 566.447 74.1946 558.584 65.6275 558.102L33.622 556.658C33.2987 556.658 33.1371 556.658 32.8138 556.658Z" fill="#E2A700"/>
<path d="M59.8083 606.086C59.6466 606.086 59.485 606.086 59.3233 606.086L37.5014 605.123C31.8439 604.802 27.1562 599.667 26.6713 593.087L26.0247 585.384C25.5398 578.804 29.2576 573.027 34.9151 571.903L56.4137 567.57C59.1617 566.929 62.0713 567.731 64.3343 569.496C67.2439 571.743 69.1836 575.274 69.5069 579.446L70.4768 592.606C70.8001 596.618 69.5069 600.469 66.9206 603.197C64.9809 605.123 62.5562 606.086 59.8083 606.086ZM37.5014 603.197L59.3233 604.16C61.5863 604.321 63.8494 603.358 65.4658 601.592C67.7288 599.346 68.8603 595.976 68.537 592.445L67.5672 579.286C67.2439 575.755 65.6274 572.706 63.0411 570.78C61.1014 569.336 58.8384 568.694 56.5754 569.175L35.0767 573.508C30.3891 574.471 27.3178 579.446 27.8028 585.063L28.4494 592.766C28.9343 598.543 32.8137 603.037 37.5014 603.197Z" fill="#E2A700"/>
<path d="M109.918 621.974L69.0219 596.778C68.6986 596.457 68.537 595.815 68.8603 595.494C69.1836 595.173 69.8301 595.013 70.1534 595.334L111.049 620.529C111.534 621.011 110.079 622.134 109.918 621.974Z" fill="#E2A700"/>
<path d="M63.0411 570.62C62.8794 570.62 62.5562 570.62 62.3945 570.459C62.0712 570.138 61.9096 569.496 62.2329 569.175C64.1726 567.089 154.37 470.319 154.855 469.677C155.178 469.356 155.825 469.196 156.148 469.516C156.471 469.837 156.633 470.479 156.31 470.8C154.208 473.208 65.6274 568.212 63.6876 570.299C63.526 570.459 63.3644 570.62 63.0411 570.62Z" fill="#E2A700"/>
<path d="M69.6686 583.619C69.1837 583.619 68.6987 583.298 68.6987 582.816C68.6987 582.335 69.022 581.853 69.5069 581.693L146.288 571.582C146.773 571.582 147.258 571.903 147.419 572.385C147.419 572.866 147.096 573.348 146.611 573.508L69.6686 583.619Z" fill="#E2A700"/>
<path d="M-61.7479 595.013C-62.2328 595.013 -62.7178 594.692 -62.7178 594.21C-62.7178 593.729 -62.3945 593.247 -61.9096 593.247L26.9946 586.026C27.4795 586.026 27.9644 586.347 27.9644 586.828C27.9644 587.31 27.6411 587.791 27.1562 587.791L-61.7479 595.013Z" fill="#E2A700"/>
<path d="M32.6522 573.669C32.3289 573.669 32.1672 573.669 31.8439 573.508L-62.3944 485.725C-62.8793 485.404 -62.8793 484.762 -62.5561 484.441C-62.2328 483.96 -61.5862 483.96 -61.2629 484.281L32.9754 572.064C33.4604 572.385 33.4604 573.027 33.1371 573.348C33.1371 573.508 32.9754 573.669 32.6522 573.669Z" fill="#E2A700"/>
<path d="M-65.6274 685.524C-65.9507 685.524 -66.1123 685.364 -66.274 685.203C-66.5972 684.882 -66.5972 684.24 -66.1123 683.919L32.3288 602.074C32.6521 601.753 33.2987 601.753 33.622 602.234C33.9452 602.555 33.9452 603.197 33.4603 603.518L-64.9808 685.364C-65.1424 685.524 -65.3041 685.524 -65.6274 685.524Z" fill="#E2A700"/>
<path d="M47.685 571.101C47.0384 571.101 46.7151 570.62 46.7151 569.978L62.0713 445.605C62.0713 445.123 62.5562 444.642 63.0411 444.802C63.5261 444.802 63.8493 445.284 63.8493 445.765L48.4932 570.138C48.6548 570.78 48.1699 571.101 47.685 571.101Z" fill="#E2A700"/>
<path d="M67.7289 664.983C67.2439 664.983 66.9207 664.662 66.759 664.341L50.1097 605.123C49.948 604.642 50.2713 604.16 50.7562 604C51.2412 603.839 51.7261 604.16 51.8878 604.642L68.5371 663.859C68.6987 664.341 68.3754 664.822 67.8905 664.983C67.8905 664.822 67.8905 664.983 67.7289 664.983Z" fill="#E2A700"/>
<path d="M55.4438 822.414L54.6356 678.142H48.8164L46.8767 823.217L52.211 822.735L55.4438 822.414Z" fill="#8E3314"/>
<path d="M33.2986 676.698C28.6109 679.265 24.2465 684.882 21.4986 695.634C20.6903 698.523 24.5698 700.288 26.3479 698.042C36.2082 685.203 48.3314 681.031 51.5643 680.228C52.0492 680.068 52.3725 679.907 52.6958 679.907C53.3424 679.747 53.989 679.747 54.6355 680.068C63.526 684.24 70.1534 692.425 74.5177 699.325C76.1342 701.893 80.1753 700.449 79.5287 697.4C78.0739 690.018 74.6794 681.512 66.7588 678.463C64.1725 677.5 64.4958 673.809 67.2438 673.167C74.5177 671.723 81.7917 672.365 87.4492 673.327C90.1972 673.809 91.8136 670.278 89.7123 668.513C82.9232 662.896 72.9013 656.958 64.3342 661.773C61.9095 663.057 59.1616 660.649 60.4547 658.082C63.5259 652.304 66.9205 647.811 69.6684 644.762C71.4465 642.836 69.6684 639.787 67.0821 640.268C61.1013 641.552 53.504 645.083 50.9177 655.354C50.2712 657.6 47.3616 658.242 46.0684 656.316C41.0575 648.774 32.8136 642.836 21.0136 643.478C18.104 643.638 17.4575 647.49 20.0438 648.613C25.0547 650.86 29.2575 653.428 32.9753 655.996C35.2383 657.6 33.9451 661.131 31.0355 660.97C25.8629 660.489 20.0438 661.773 13.9013 665.945C11.4766 667.55 12.9314 671.241 15.6794 670.92C22.3068 670.278 27.8027 670.599 32.4903 671.402C35.0766 672.204 35.5616 675.414 33.2986 676.698Z" fill="#C04C1D"/>
<path d="M45.9054 664.18C44.1273 661.773 39.9246 656.316 33.9438 652.304C27.8013 647.971 21.1739 646.688 18.5876 646.206C18.5876 645.404 19.0725 644.762 19.7191 644.28C22.952 644.762 29.2561 646.367 35.2369 650.539C43.3191 656.156 48.1684 663.699 48.6534 664.341C48.815 664.341 49.1383 664.341 49.2999 664.341C54.4725 649.576 63.8479 642.997 68.6972 640.429C69.5054 640.75 69.9903 641.231 70.3136 642.034C66.1109 644.12 56.7355 650.218 51.5629 664.662C71.7684 666.908 83.7301 670.118 90.3575 672.204C89.8725 673.007 88.741 673.488 87.6095 673.327C86.9629 673.167 86.3164 673.167 85.6698 673.007C79.204 671.241 67.7273 668.513 50.1081 666.587C49.4616 666.587 48.6533 666.427 48.0068 666.427C47.3602 667.229 46.552 667.871 45.9054 668.674C53.9876 670.76 61.9082 676.698 69.6671 686.326C74.1931 692.104 77.4259 697.56 78.7191 699.967C78.0725 700.449 77.2643 700.609 76.4561 700.449C72.8999 694.19 60.2917 673.809 44.289 670.599C36.2068 679.907 30.0643 690.178 25.5383 699.004C24.7301 699.325 23.9218 699.325 23.2753 699.004C28.2862 689.055 35.3986 677.019 45.2588 666.427C33.7821 665.785 22.6287 666.908 12.9301 668.834C12.9301 668.032 13.2533 667.069 14.0616 666.427C23.5985 664.501 34.5903 663.378 45.9054 664.18Z" fill="#8E3314"/>
<path d="M140.307 685.524C140.307 685.524 97.3097 681.512 84.8631 686.647C72.4165 691.943 49.1398 724.521 49.1398 724.521L-0.808164 727.249C-3.71775 727.57 -5.98076 728.212 -7.5972 729.175C-9.21364 730.138 -10.3451 731.582 -10.8301 733.026C20.8521 744.26 47.8466 751.482 55.6055 752.445C85.348 755.975 96.0165 755.494 118.647 758.222L149.682 759.345L159.866 716.497L140.307 685.524Z" fill="#435B92"/>
<path d="M91.9754 685.043C89.0658 685.364 87.611 685.685 84.8631 686.808C72.4165 692.104 49.1398 724.681 49.1398 724.681L-0.808164 727.41C-3.71775 727.731 -5.98076 728.372 -7.5972 729.335C-9.21364 730.298 -10.3451 731.743 -10.8301 733.187C20.8521 744.421 47.8466 751.642 55.6055 752.605C76.1343 755.012 80.4987 755.012 92.9453 755.975L91.9754 685.043Z" fill="#506FB3"/>
<path d="M57.0603 823.217L87.4493 879.225L119.616 875.694L127.537 804.441L57.0603 823.217Z" fill="#C04C1D"/>
<path d="M43.1589 728.533C43.1589 728.533 75.6493 707.51 104.099 716.818C132.548 726.126 151.137 752.766 151.945 787.109C152.753 821.452 124.789 830.278 124.789 830.278C124.789 830.278 120.101 833.648 123.658 840.87C123.658 840.87 120.425 845.363 112.666 852.745C93.7535 847.61 85.6713 816.637 85.6713 816.637L33.9452 779.245C33.9452 779.245 23.4384 760.308 25.3781 746.025C27.1562 731.743 43.1589 728.533 43.1589 728.533Z" fill="#8E3314"/>
<path d="M56.2521 736.878C56.2521 736.878 46.7151 742.816 40.411 752.445C34.1069 761.913 32.6521 770.74 29.4192 773.949C26.1863 777.159 16.326 781.171 16.326 781.171L24.0849 793.688C24.0849 793.688 23.6 800.589 21.9836 811.02C20.3672 821.452 21.8219 835.092 21.8219 835.092C21.8219 835.092 42.674 839.586 54.7973 838.142C66.9206 836.697 77.4274 830.92 81.9534 826.587C86.4795 822.254 86.4795 818.884 86.4795 818.884C86.4795 818.884 94.2384 820.81 101.027 817.76C107.816 814.711 106.685 801.391 106.685 801.391C106.685 801.391 94.885 776.035 82.9233 762.555C70.9617 749.075 56.2521 736.878 56.2521 736.878Z" fill="#E74E0F"/>
<path d="M51.0795 735.434C51.0795 735.434 57.5452 762.876 68.2137 780.208C78.8822 797.7 127.052 809.736 127.052 809.736C127.052 809.736 131.416 776.838 111.696 749.877C91.9754 723.077 51.0795 735.434 51.0795 735.434Z" fill="#8E3314"/>
<path d="M31.8439 817.44C27.3179 817.76 23.7617 817.119 21.1754 816.477C21.3371 814.711 21.4987 812.786 21.822 811.02C22.3069 807.811 22.7918 804.922 23.1151 802.354C26.5097 803.799 32.8138 806.366 37.5014 807.971C44.2905 810.378 57.0603 811.823 57.0603 811.823C57.0603 811.823 41.2192 816.958 31.8439 817.44Z" fill="#E2A700"/>
<path d="M140.307 685.524C140.307 685.524 97.3097 681.512 84.8631 686.647C72.4165 691.943 49.1398 724.521 49.1398 724.521L-0.808164 727.249C-3.71775 727.57 -5.98076 728.212 -7.5972 729.175C-9.21364 730.138 -10.3451 731.582 -10.8301 733.026C20.8521 744.26 118.647 778.122 138.044 786.146L149.521 759.345L159.704 716.497L140.307 685.524Z" fill="#435B92"/>
<path d="M68.3754 777.159L52.6959 770.098C52.6959 770.098 51.0795 772.344 48.1699 771.381C45.2603 770.419 44.4521 772.184 49.1398 774.752C53.8274 777.159 67.7288 776.998 68.3754 777.159Z" fill="#8E3314"/>
<path d="M51.8877 773.949L49.3014 781.492L68.3754 777.159L51.8877 773.949Z" fill="#8E3314"/>
<path d="M194.296 553.288C194.781 554.411 223.715 519.908 277.058 523.759C330.4 527.611 349.474 565.645 352.222 572.545C354.97 579.446 359.981 591.482 363.86 596.938C367.74 602.395 390.047 621.653 390.047 621.653L376.792 632.726C376.792 632.726 379.055 640.108 382.126 642.194C385.197 644.28 387.945 644.601 387.945 644.601L387.622 648.292C387.46 650.7 386.167 653.107 384.228 654.551L383.743 654.872C383.743 654.872 387.137 655.675 388.754 658.403C390.37 661.131 389.238 664.501 389.238 664.501C389.238 664.501 385.359 666.106 386.329 669.636C387.299 673.167 394.088 690.98 389.077 691.622C384.066 692.264 367.255 696.758 327.975 698.523C322.48 702.696 306.8 727.249 295.647 749.717C284.493 772.184 288.534 787.109 288.534 787.109C288.534 787.109 146.773 853.869 162.129 820.007C177.485 786.146 203.995 756.938 217.249 730.298C230.504 703.658 226.625 680.87 226.625 680.87C226.625 680.87 219.351 678.784 209.491 671.241C199.792 663.699 190.255 653.909 190.255 653.909C190.255 653.909 170.373 685.043 135.134 675.093C99.896 665.143 64.9809 650.86 79.6905 586.186C94.0768 521.673 179.748 519.587 194.296 553.288Z" fill="#E74E0F"/>
<path d="M304.375 708.794C305.83 707.67 327.652 699.004 327.652 699.004C327.652 699.004 335.734 674.13 320.217 643.157C304.699 612.184 236.647 583.458 236.647 583.458L212.4 674.13C220.482 679.747 226.14 681.352 226.14 681.352C226.14 681.352 226.948 686.166 226.463 693.869L304.375 708.794Z" fill="#C04C1D"/>
<path d="M290.636 583.619C295.647 580.088 298.88 576.557 300.981 573.348C304.699 567.41 302.921 559.546 297.101 555.695L294.515 554.09C287.726 549.757 287.08 540.128 293.384 534.832L293.545 534.672C296.455 532.265 298.88 530.018 300.981 528.092C293.869 525.845 285.948 524.241 276.896 523.599C223.553 519.747 194.619 554.251 194.134 553.127C179.586 519.426 93.9151 521.512 79.3672 586.186C64.6576 650.86 88.2576 680.549 123.496 690.499C158.734 700.609 189.932 653.909 189.932 653.909C189.932 653.909 199.307 663.538 209.167 671.241C218.866 678.784 226.301 680.87 226.301 680.87C226.301 680.87 239.88 682.635 252.164 677.66C264.288 672.686 270.915 664.341 270.915 664.341L262.833 619.406C262.833 619.406 274.633 619.406 283.038 610.419C291.444 601.592 273.986 595.494 290.636 583.619Z" fill="#506FB3"/>
<path d="M281.26 554.732L280.452 554.892L170.049 578.162C170.049 578.162 170.534 575.113 170.534 574.632C170.372 573.829 170.049 569.657 173.444 566.287C176.515 563.077 179.586 559.707 183.951 559.225C188.315 558.744 192.194 563.879 193.972 564.842C196.074 565.966 197.852 566.929 199.792 566.287C201.085 565.805 203.025 563.879 205.126 561.633C209.167 557.3 214.178 552.004 219.836 552.325C224.038 552.485 226.625 553.93 228.564 555.213C230.827 556.497 232.282 557.46 235.192 556.497C237.131 555.695 239.394 553.127 241.819 550.238C246.183 544.943 251.679 538.363 259.438 538.523C271.4 538.684 280.452 553.769 280.937 554.411L281.26 554.732Z" fill="#009EE2"/>
<path d="M217.088 719.706V598.704L189.608 577.039L170.858 583.94V562.114L135.781 534.511V726.607L217.088 719.706Z" fill="#506FB3"/>
<path d="M136.104 729.977L135.781 726.607V534.511L123.173 541.412V552.967L112.504 547.189L104.745 551.362V729.496L136.104 729.977Z" fill="#506FB3"/>
<path d="M123.173 541.412L135.781 534.511V726.607L136.104 729.977L123.173 729.817V541.412Z" fill="#355493"/>
<path d="M112.504 729.656L96.8247 729.496L97.3096 556.818L112.504 547.189V729.656Z" fill="#355493"/>
<path d="M208.036 720.509L189.608 721.953V577.039L208.036 591.482V720.509Z" fill="#355493"/>
<path d="M170.858 723.558L147.904 725.484V543.98L170.858 562.114C170.858 580.89 170.858 697.079 170.858 723.558Z" fill="#355493"/>
<path d="M220.643 713.127C220.643 713.127 220.482 713.127 220.482 712.966L222.098 711.362C221.775 711.041 221.29 710.559 182.011 701.091C162.775 696.437 143.216 691.943 143.054 691.943L142.569 694.03C172.635 701.251 218.542 712.164 220.643 713.127Z" fill="#506FB3"/>
<path d="M142.92 680.95L142.329 683.119L219.705 703.968L220.296 701.799L142.92 680.95Z" fill="#506FB3"/>
<path d="M146.697 670.158L145.993 672.293L209.375 693.102L210.079 690.967L146.697 670.158Z" fill="#506FB3"/>
<path d="M145.881 658.443L145.099 660.551L209.228 684.089L210.011 681.98L145.881 658.443Z" fill="#506FB3"/>
<path d="M146.966 647.97L146.119 650.053L209.344 675.481L210.191 673.398L146.966 647.97Z" fill="#506FB3"/>
<path d="M147.184 637.662L146.286 639.724L209.158 666.812L210.056 664.749L147.184 637.662Z" fill="#506FB3"/>
<path d="M145.937 626.074L144.961 628.101L209.086 658.649L210.062 656.622L145.937 626.074Z" fill="#506FB3"/>
<path d="M147.098 616.331L146.069 618.332L209.359 650.548L210.389 648.547L147.098 616.331Z" fill="#506FB3"/>
<path d="M147.244 604.573L146.14 606.534L209.445 641.774L210.549 639.813L147.244 604.573Z" fill="#506FB3"/>
<path d="M146.641 591.003L145.455 592.917L209.289 632.015L210.474 630.101L146.641 591.003Z" fill="#506FB3"/>
<path d="M146.791 578.243L145.54 580.116L209.472 622.337L210.722 620.464L146.791 578.243Z" fill="#506FB3"/>
<path d="M147.074 563.906L145.775 565.745L210.154 610.722L211.453 608.882L147.074 563.906Z" fill="#506FB3"/>
<path d="M220.643 713.127C220.643 713.127 220.482 713.127 220.482 712.966L222.098 711.362C221.775 711.041 221.29 710.559 182.011 701.091C162.775 696.437 143.216 691.943 143.054 691.943L142.569 694.03C172.635 701.251 218.542 712.164 220.643 713.127Z" fill="#506FB3"/>
<path d="M142.92 680.95L142.329 683.119L219.705 703.968L220.296 701.799L142.92 680.95Z" fill="#506FB3"/>
<path d="M146.697 670.158L145.993 672.293L209.375 693.102L210.079 690.967L146.697 670.158Z" fill="#506FB3"/>
<path d="M145.881 658.443L145.099 660.551L209.228 684.089L210.011 681.98L145.881 658.443Z" fill="#506FB3"/>
<path d="M146.966 647.97L146.119 650.053L209.344 675.481L210.191 673.398L146.966 647.97Z" fill="#506FB3"/>
<path d="M147.184 637.662L146.286 639.724L209.158 666.812L210.056 664.749L147.184 637.662Z" fill="#506FB3"/>
<path d="M145.937 626.074L144.961 628.101L209.086 658.649L210.062 656.622L145.937 626.074Z" fill="#506FB3"/>
<path d="M147.098 616.331L146.069 618.332L209.359 650.548L210.389 648.547L147.098 616.331Z" fill="#506FB3"/>
<path d="M147.244 604.573L146.14 606.534L209.445 641.774L210.549 639.813L147.244 604.573Z" fill="#506FB3"/>
<path d="M146.641 591.003L145.455 592.917L209.289 632.015L210.474 630.101L146.641 591.003Z" fill="#506FB3"/>
<path d="M146.791 578.243L145.54 580.116L209.472 622.337L210.722 620.464L146.791 578.243Z" fill="#506FB3"/>
<path d="M147.074 563.906L145.775 565.745L210.154 610.722L211.453 608.882L147.074 563.906Z" fill="#506FB3"/>
<path d="M304.375 841.03C295.808 821.772 284.17 772.826 295.323 750.198C306.477 727.731 327.652 699.004 327.652 699.004C278.027 694.351 266.389 666.427 266.389 666.427C266.389 666.427 230.019 704.14 216.764 730.78C203.509 757.42 184.597 775.875 169.241 809.897C153.885 843.758 172.474 915.814 172.474 915.814L364.345 909.556C359.011 905.062 312.942 860.288 304.375 841.03Z" fill="#E74E0F"/>
<path d="M220.967 937.961C220.967 937.961 221.29 931.06 219.351 925.604C217.411 920.147 205.288 932.344 199.63 914.691C193.973 897.038 192.356 869.596 201.085 865.263C209.814 860.93 230.989 883.237 234.06 881.311C237.132 879.385 228.888 869.917 226.625 855.313C224.362 840.709 221.614 834.29 227.11 831.401C232.606 828.513 239.395 841.993 241.981 847.289C244.567 852.585 245.375 859.807 250.871 858.683C250.871 858.683 245.214 811.02 241.173 795.454C237.132 780.047 270.43 798.182 270.43 798.182C273.34 807.008 262.348 831.08 268.975 830.438C275.603 829.797 277.219 816.958 279.806 807.169C282.392 797.379 285.14 793.046 290.797 795.454C296.455 798.021 296.616 801.873 293.384 810.539C290.151 819.205 278.997 832.043 284.332 836.055C289.666 840.067 294.677 828.352 301.789 833.327C308.901 838.463 297.101 848.091 292.737 851.782C288.373 855.474 282.23 859.165 279.644 863.016C277.058 866.868 275.764 867.991 277.543 869.596C279.321 871.201 283.847 865.423 290.797 861.09C297.748 856.597 300.173 853.066 305.184 858.202C310.195 863.337 306.315 872.164 295.162 881.632C284.17 891.1 269.784 895.112 264.126 900.729C258.469 906.507 259.115 910.839 262.833 911.481C266.874 912.123 220.967 937.961 220.967 937.961Z" fill="#A77E00"/>
<path d="M244.89 914.37C245.214 914.37 245.537 914.21 245.86 913.889C257.337 895.273 288.373 806.045 289.666 802.194C289.827 801.712 289.504 801.07 289.019 800.749C288.534 800.589 287.888 800.91 287.564 801.391C287.241 802.354 255.236 894.31 244.082 912.605C243.759 913.086 243.921 913.728 244.406 914.049C244.406 914.21 244.567 914.37 244.89 914.37Z" fill="#009EE2"/>
<path d="M265.257 864.781C265.419 864.781 265.419 864.781 265.581 864.781C266.066 864.621 266.389 863.979 266.227 863.337C258.145 843.277 253.619 823.056 253.619 822.896C253.457 822.254 252.973 821.933 252.326 822.093C251.679 822.254 251.356 822.735 251.518 823.377C251.518 823.538 256.044 844.079 264.288 864.3C264.288 864.621 264.773 864.781 265.257 864.781Z" fill="#009EE2"/>
<path d="M269.622 855.634C269.784 855.634 269.945 855.634 269.945 855.634C269.945 855.634 275.764 853.387 281.584 850.178C287.403 846.968 297.263 840.388 297.586 840.067C298.071 839.746 298.233 839.104 297.91 838.623C297.586 838.142 296.94 837.981 296.455 838.302C296.293 838.302 286.433 845.203 280.614 848.252C274.795 851.301 269.299 853.548 269.137 853.708C268.652 853.869 268.329 854.511 268.49 855.153C268.814 855.474 269.299 855.634 269.622 855.634Z" fill="#009EE2"/>
<path d="M256.852 888.533C257.499 888.533 271.723 887.73 282.715 880.99C293.545 874.41 303.567 863.177 303.89 862.695C304.214 862.214 304.214 861.572 303.729 861.251C303.244 860.93 302.597 860.93 302.274 861.411C302.112 861.572 292.09 872.966 281.584 879.385C272.208 885.163 259.762 886.446 257.337 886.607C255.721 885.163 249.093 878.904 242.789 868.794C235.515 857.399 229.858 837.981 229.858 837.66C229.696 837.018 229.049 836.697 228.564 836.858C227.918 837.018 227.595 837.66 227.756 838.142C227.918 838.944 233.575 858.202 241.011 869.756C248.447 881.471 256.044 888.051 256.367 888.372C256.367 888.533 256.529 888.533 256.852 888.533Z" fill="#009EE2"/>
<path d="M313.427 788.071L313.266 786.948L309.386 787.43L309.548 788.553C309.548 789.034 310.68 799.305 312.781 810.86C313.427 814.23 313.912 817.279 314.559 820.007C314.397 819.847 314.074 819.686 313.912 819.526C311.811 818.242 308.901 815.674 306.638 811.02C301.951 801.552 295 778.122 295 777.801L294.677 776.838L290.151 777.801L290.474 778.924C290.797 779.887 297.586 802.836 302.436 812.786C306.8 821.612 313.589 824.501 315.852 825.143C317.792 833.006 319.893 838.623 322.156 841.833L322.803 842.635L326.036 840.388L325.389 839.586C319.247 831.08 314.559 799.466 313.427 788.071Z" fill="#B43518"/>
<path d="M398.937 746.828C398.937 746.828 386.49 746.346 375.014 740.409C363.537 734.471 359.496 730.459 359.496 730.459C359.496 730.459 354.162 734.631 346.403 737.52C338.644 740.409 327.005 734.15 327.005 734.15C327.005 734.15 321.186 740.409 316.175 741.371C311.164 742.334 306.153 738.643 306.153 738.643C306.153 738.643 302.759 734.792 294.515 738.643C286.271 742.495 288.534 745.063 282.069 744.26C275.603 743.458 277.543 740.73 274.31 740.409C271.238 739.927 261.055 746.828 261.055 746.828H398.937Z" fill="#8E3314"/>
<path d="M263.641 797.379L344.625 796.577C344.625 796.577 343.17 787.911 330.238 785.183C317.307 782.455 314.397 787.109 314.397 787.109C314.397 787.109 310.195 773.789 292.899 774.27C275.441 774.752 263.641 797.379 263.641 797.379Z" fill="#506FB3"/>
<path d="M375.014 740.409C363.537 734.471 359.496 730.459 359.496 730.459C359.496 730.459 354.162 734.631 346.403 737.52C338.644 740.409 327.005 734.15 327.005 734.15C327.005 734.15 321.186 740.409 316.175 741.371C311.164 742.334 306.153 738.643 306.153 738.643C306.153 738.643 302.759 734.792 294.515 738.643C286.271 742.495 288.534 745.063 282.069 744.26C275.603 743.458 277.543 740.73 274.31 740.409C271.238 739.927 261.055 746.828 261.055 746.828H398.937C398.937 746.828 386.49 746.346 375.014 740.409Z" fill="#1E396E"/>
<path d="M332.663 736.397C331.531 750.358 326.844 804.922 323.288 829.315C321.994 838.142 317.468 852.906 316.014 858.362C316.499 859.486 324.258 868.152 324.258 868.152C326.036 856.918 327.975 843.758 329.43 831.401C332.178 805.082 335.249 752.605 336.057 737.359C334.764 737.038 333.633 736.718 332.663 736.397Z" fill="#B43518"/>
<path d="M361.921 767.53C361.274 767.851 360.627 768.011 359.981 768.332L359.496 768.493L359.334 768.974C356.425 775.073 351.899 784.22 347.373 791.923C339.937 804.761 327.652 815.353 327.49 815.353L326.197 816.477L329.43 818.884L330.238 818.242C330.4 818.081 343.17 807.169 350.929 793.688C355.778 785.343 360.466 775.875 363.537 769.295L364.992 766.086L361.921 767.53Z" fill="#B43518"/>
<path d="M314.559 764.962C318.277 776.035 327.652 790.639 327.975 791.281L329.107 793.207L331.208 787.269L330.885 786.788C330.723 786.627 321.51 774.912 318.923 763.197C317.307 756.296 315.367 747.47 314.074 741.211L313.912 740.409L313.104 740.248C312.781 740.248 312.296 740.088 311.973 740.088L310.518 739.767L310.679 741.211C311.164 748.272 312.296 758.062 314.559 764.962Z" fill="#B43518"/>
<path d="M332.501 772.665C332.501 772.505 340.584 764.16 345.433 753.889C348.504 747.47 351.414 740.248 353.353 735.113L354.323 732.545L351.899 733.829C351.575 733.989 351.09 734.15 350.767 734.471L350.444 734.631L350.282 734.952C348.504 739.767 345.756 746.667 342.847 752.605C338.159 762.394 330.562 770.579 330.4 770.579L329.592 771.381L331.855 773.468L332.501 772.665Z" fill="#B43518"/>
<path d="M313.266 773.789C313.266 773.789 328.46 761.271 339.614 760.469C350.767 759.666 356.263 767.048 356.263 767.048C356.263 767.048 363.375 760.308 377.115 760.308C390.855 760.469 398.937 774.431 398.937 774.431L313.266 773.789Z" fill="#506FB3"/>
<path d="M349.636 710.238C322.641 708.954 314.074 724.2 314.074 724.2C314.074 724.2 279.482 709.275 261.055 746.667C261.055 746.667 271.238 739.767 274.31 740.248C277.381 740.73 275.603 743.297 282.069 744.1C288.534 744.902 286.271 742.174 294.515 738.483C302.759 734.631 306.153 738.483 306.153 738.483C306.153 738.483 311.164 742.334 316.175 741.211C321.186 740.248 327.005 733.989 327.005 733.989C327.005 733.989 338.644 740.248 346.403 737.359C354.162 734.471 359.496 730.298 359.496 730.298C359.496 730.298 363.699 734.15 375.014 740.248C386.49 746.186 398.937 746.667 398.937 746.667C398.937 746.828 376.63 711.522 349.636 710.238Z" fill="#506FB3"/>
<path d="M267.359 622.936L262.833 619.566C262.833 619.566 250.71 612.184 242.304 616.678C233.899 621.171 234.384 645.243 248.608 656.958C262.833 668.674 275.118 668.032 277.543 666.748C279.967 665.624 267.359 622.936 267.359 622.936Z" fill="#C04C1D"/>
<path d="M388.43 658.724C386.814 655.996 383.419 655.193 383.419 655.193L384.066 654.712C385.844 653.267 391.663 646.848 387.622 644.922C382.934 642.676 374.852 650.539 363.537 650.539C364.022 651.823 373.074 664.662 388.915 664.982C388.915 664.822 390.047 661.452 388.43 658.724Z" fill="#8E3314"/>
<path d="M334.926 593.247C335.411 594.05 335.573 595.013 335.573 596.136C335.734 600.309 332.502 603.839 328.299 604C324.096 604.16 320.54 600.951 320.378 596.778C320.378 595.655 320.54 594.692 320.863 593.729L334.926 593.247Z" fill="#355493"/>
<path d="M304.537 585.705C304.375 585.705 304.375 585.865 304.214 585.705C303.729 585.705 302.921 585.705 302.274 585.223C301.627 584.902 301.142 584.1 301.627 582.495L301.789 582.174C301.951 582.014 304.375 580.088 308.255 578.162C313.104 575.755 318.762 573.99 324.904 573.669C331.047 573.187 337.512 574.311 343.655 576.718C345.11 577.36 346.726 578.002 348.181 578.804C348.504 578.965 348.989 579.125 349.312 579.446L350.282 579.927C350.444 579.927 350.605 580.088 350.605 580.409L350.929 580.89L351.252 581.532L351.575 582.174C351.737 582.656 351.899 582.977 352.06 583.458C352.707 585.063 353.192 586.989 353.353 588.914C353.515 590.84 353.192 592.766 352.384 594.531C350.929 598.062 348.181 600.79 345.11 602.716C342.038 604.642 338.805 605.765 335.411 606.567C328.622 608.012 321.671 607.691 315.367 605.284C313.751 604.642 312.296 603.839 310.841 603.037C310.518 602.876 310.195 602.555 309.871 602.395L309.386 602.074L308.578 601.432C307.447 600.469 306.477 599.506 305.507 598.383C305.507 598.222 305.184 598.062 305.345 598.062L305.83 597.741L306.638 597.099C307.123 596.618 307.77 596.297 308.255 595.976C308.901 595.655 309.548 595.173 310.195 594.852C310.679 594.692 311.003 594.531 311.326 594.371C312.781 593.729 314.236 593.247 315.69 592.926C321.51 591.322 327.329 591.001 332.501 591.803C335.088 592.285 337.674 592.926 339.937 594.05C341.068 594.531 342.2 595.173 343.17 595.815C343.655 596.136 344.14 596.457 344.625 596.778L345.433 597.42C347.373 599.185 348.342 600.63 348.342 600.63C348.342 600.63 349.474 602.234 350.282 604.481C351.252 606.728 351.737 609.777 351.737 612.184C351.899 614.27 351.575 615.554 351.414 616.357C351.252 617.159 350.929 617.32 350.767 617.159C350.282 616.838 349.959 614.752 349.312 612.505C349.312 612.826 348.666 609.937 347.534 607.53C346.403 604.963 344.463 603.037 344.463 603.037C344.463 603.037 343.816 602.234 342.523 600.95L341.877 600.469C341.553 600.148 341.23 599.988 340.745 599.667C339.937 599.185 339.129 598.704 338.321 598.222C336.542 597.42 334.603 596.778 332.34 596.297C327.975 595.494 322.803 595.655 317.63 596.938C316.337 597.259 315.044 597.741 313.751 598.222L312.781 598.543C312.458 598.704 311.973 598.864 312.134 598.864L312.781 599.346C313.912 600.148 315.205 600.79 316.499 601.432C321.671 603.679 327.975 604.16 333.956 603.037C336.866 602.395 339.937 601.432 342.523 599.988C345.11 598.543 347.373 596.457 348.504 594.05C349.636 591.643 349.636 588.914 348.666 586.347C348.343 585.705 348.181 585.063 347.696 584.421C347.373 583.94 347.534 584.1 347.534 584.1L346.888 583.779C345.595 582.977 344.14 582.335 342.685 581.853C337.027 579.607 331.208 578.483 325.712 578.804C320.216 579.125 315.044 580.73 310.679 582.816C306.8 583.94 304.699 585.705 304.537 585.705Z" fill="#355493"/>
<path d="M263.318 596.938C262.833 596.136 262.186 595.173 261.863 595.013C260.732 593.889 259.438 592.766 258.145 591.643C256.206 590.038 254.104 587.952 251.841 586.828C247.638 584.742 241.011 583.458 238.263 588.433C237.455 589.717 237.455 591.001 237.778 592.124C237.94 593.087 238.425 594.05 239.233 595.013C241.819 598.543 245.86 598.864 249.901 599.185C254.589 599.506 259.277 597.42 263.964 598.062C264.126 598.062 263.641 597.58 263.318 596.938Z" fill="#C04C1D"/>
<path d="M279.321 587.149C278.512 586.828 277.543 587.31 277.219 588.112C276.249 590.68 274.956 593.568 272.855 595.655C271.4 597.259 269.622 598.383 268.005 598.864C269.945 591.803 270.592 584.26 269.622 576.878C269.622 576.397 269.299 576.076 268.975 575.755C268.652 575.434 268.167 575.434 267.844 575.434C267.359 575.434 267.036 575.755 266.712 576.076C266.389 576.397 266.389 576.878 266.389 577.199C267.197 583.458 266.874 590.038 265.258 596.297C261.378 588.112 256.852 580.248 251.841 572.706C251.679 572.385 251.195 572.064 250.871 572.064C250.386 571.903 250.063 572.064 249.74 572.224C249.416 572.385 249.093 572.866 249.093 573.187C248.932 573.669 249.093 573.99 249.255 574.311C258.792 588.593 266.227 603.839 271.723 619.887C267.521 616.036 262.833 612.666 257.822 610.098C256.367 609.456 255.074 608.654 253.619 608.012C252.811 607.691 251.841 608.012 251.518 608.814C251.195 609.617 251.518 610.579 252.326 610.9C253.619 611.542 255.074 612.184 256.367 612.826C262.995 616.196 268.975 621.011 273.825 626.467C275.118 630.8 276.249 635.293 277.381 639.787C277.543 640.589 278.351 641.231 279.159 641.071C279.482 641.071 279.644 640.91 279.806 640.75C279.967 640.589 279.967 640.589 280.129 640.429C280.29 640.108 280.452 639.626 280.29 639.306C277.381 626.467 273.178 613.949 267.844 601.913C269.784 601.592 271.885 600.469 273.501 599.185C273.986 598.704 274.471 598.222 274.956 597.741C277.381 595.173 278.836 591.964 279.806 589.075C280.452 588.272 280.129 587.47 279.321 587.149Z" fill="#C04C1D"/>
<path d="M265.096 630.318C265.096 630.158 265.256 630.158 265.096 630.318V630.318Z" fill="#C04C1D"/>
<path d="M256.205 570.62C257.175 575.434 253.134 578.644 249.416 578.323C246.992 578.002 244.567 575.915 243.921 573.027C242.466 565.324 254.589 562.435 256.205 570.62Z" fill="#CB9700"/>
<path d="M273.986 573.829C274.956 578.483 271.077 581.853 267.359 581.372C264.934 581.051 262.51 578.965 262.025 576.236C260.57 568.694 272.37 565.805 273.986 573.829Z" fill="#CB9700"/>
<path d="M282.877 586.347C283.523 589.235 281.099 591.322 278.836 591.001C277.381 590.84 275.926 589.556 275.603 587.791C274.471 583.137 281.907 581.372 282.877 586.347Z" fill="#CB9700"/>
<path d="M256.69 607.53C257.499 611.382 254.266 614.11 251.194 613.789C249.255 613.628 247.153 611.863 246.83 609.456C245.375 603.197 255.236 600.79 256.69 607.53Z" fill="#CB9700"/>
<path d="M-4.68774 909.395C71.4465 893.508 131.578 803.799 131.578 803.799L191.548 912.765L-4.68774 909.395Z" fill="#506FB3"/>
<path d="M254.751 682.475C254.751 682.475 262.671 682.314 268.814 696.116C274.956 709.917 265.904 708.633 257.175 722.114C248.447 735.594 249.578 747.791 247.962 746.667C246.345 745.384 231.959 710.559 231.959 710.559L254.751 682.475Z" fill="#8E3314"/>
<path d="M239.556 714.732C239.556 714.732 250.386 738.483 257.499 758.383C264.611 778.282 270.43 798.342 270.43 798.342L251.195 795.935L257.014 870.88C257.014 870.88 255.882 875.534 248.77 880.83C241.658 885.965 229.696 885.002 229.696 885.002L199.469 867.67L204.641 941.331L154.693 910.198C125.436 891.903 109.918 858.041 115.414 824.18C116.06 820.649 116.384 817.44 116.707 814.711C118.485 796.417 115.09 747.951 115.09 747.951L138.206 703.819L228.888 705.584L239.556 714.732Z" fill="#C04C1D"/>
<path d="M140.307 816.637C141.6 820.489 178.778 835.574 178.778 835.574L187.83 835.413L203.186 869.596L199.469 867.51L203.186 921.11L196.882 936.356L153.562 909.235C124.789 891.261 109.756 858.041 115.414 824.822C116.06 820.81 116.545 817.279 116.869 814.39C118.647 796.095 115.252 747.63 115.252 747.63L122.041 734.631H140.307C140.307 734.631 139.014 812.786 140.307 816.637Z" fill="#C04C1D"/>
<path d="M145.964 751C145.964 751 169.564 758.062 187.184 776.035C204.803 793.849 202.055 806.687 202.055 806.687C202.055 806.687 205.449 839.425 200.762 837.821C196.074 836.216 145.318 794.009 145.318 794.009L145.964 751Z" fill="#E74E0F"/>
<path d="M251.033 639.626C251.033 639.626 269.46 654.391 270.43 679.586C271.4 704.782 242.142 715.374 225.816 722.274C209.49 729.175 165.038 723.558 150.975 713.127C150.975 743.297 151.299 790.158 151.299 790.158L203.833 826.908L199.468 867.349L131.416 835.253C131.416 835.253 129.8 765.765 128.992 756.136C128.184 746.507 108.301 741.051 108.301 741.051C108.301 741.051 92.7835 738.001 89.5506 718.583C86.3178 699.004 88.4191 668.353 88.4191 668.353C88.4191 668.353 105.715 661.452 112.019 667.39C118.162 673.167 121.071 681.031 121.071 681.031C121.071 681.031 123.981 669.155 133.356 663.699C142.731 658.242 166.816 657.279 180.556 650.218C194.296 643.157 199.792 612.345 199.792 612.345C199.792 612.345 229.049 618.282 215.148 643.157C222.907 642.194 221.614 620.69 221.614 620.69C221.614 620.69 239.233 621.332 245.052 639.466C248.285 649.255 246.507 655.514 246.507 655.514C246.507 655.514 247.477 657.279 249.255 648.453C250.548 642.194 251.033 639.626 251.033 639.626Z" fill="#8E3314"/>
<path d="M251.518 799.626L257.014 870.88C257.014 870.88 255.882 875.534 248.77 880.83C241.658 885.965 229.696 885.002 229.696 885.002L199.469 867.67L202.055 806.687L251.518 799.626Z" fill="#355493"/>
<path d="M130.447 741.211C130.447 741.211 110.403 731.422 103.29 745.383C96.1781 759.345 105.392 772.344 111.211 776.035C116.869 779.566 130.123 780.85 130.123 779.245C129.962 777.64 130.447 741.211 130.447 741.211Z" fill="#C04C1D"/>
<path d="M238.586 818.723C245.699 816.156 249.74 812.946 252.164 810.378L253.619 829.636L253.296 832.204L242.466 838.944C242.466 838.944 238.263 853.548 227.595 852.906C216.764 852.264 207.874 818.242 207.874 818.242C207.874 818.242 225.493 823.538 238.586 818.723Z" fill="#C04C1D"/>
<path d="M239.071 796.737C240.364 795.935 240.849 794.33 240.203 792.886C238.748 790.158 237.455 786.627 237.616 785.343C239.071 784.862 245.052 785.022 250.548 785.825C252.164 786.146 253.619 785.022 253.781 783.418C254.104 781.813 252.973 780.368 251.356 780.208C246.022 779.405 236.647 778.282 233.575 781.01C229.696 784.38 233.252 792.083 235.03 795.293C235.838 797.058 237.616 797.54 239.071 796.737Z" fill="#8E3314"/>
<path d="M177.485 923.999L175.06 895.594C175.06 895.594 185.567 894.952 193.164 886.286C199.469 879.064 199.63 870.719 199.469 867.991L204.641 940.849L177.485 923.999Z" fill="#8E3314"/>
<path d="M214.986 827.229C214.986 827.229 227.756 829.797 236.808 830.599C245.86 831.241 253.619 828.994 253.619 828.994L253.781 832.043C253.781 832.043 246.669 838.463 242.627 839.265C238.91 839.586 226.948 842.635 214.986 827.229Z" fill="#8E3314"/>
<path d="M185.89 745.865L213.37 742.976C213.37 742.976 214.663 747.309 219.674 747.149C224.685 746.988 224.847 750.358 216.441 751.803C208.036 753.247 187.022 746.025 185.89 745.865Z" fill="#355493"/>
<path d="M212.723 749.235V762.074L185.89 745.865L212.723 749.235Z" fill="#355493"/>
<path d="M179.263 743.939C181.203 741.371 191.548 722.114 203.994 720.99C216.279 719.867 221.129 727.41 221.452 728.533C221.775 729.817 224.2 739.606 224.038 738.804C223.877 738.001 216.603 726.447 205.934 728.854C194.942 731.261 179.263 743.939 179.263 743.939Z" fill="#8E3314"/>
<path fill-rule="evenodd" clip-rule="evenodd" d="M87.7726 894.791C87.9342 894.791 87.9342 894.631 87.9342 894.47C87.9342 894.31 87.7726 894.31 87.6109 894.31C87.6109 894.31 87.126 894.47 86.4794 894.631C86.3178 894.149 85.8329 893.829 84.2164 893.829C84.0548 893.829 83.8931 893.989 83.8931 893.989C83.8931 893.989 83.7315 893.989 83.7315 894.15C83.7315 894.15 82.4383 895.433 81.6301 895.754C81.6301 895.594 81.6301 895.112 81.7918 894.631C81.7918 894.31 81.9534 894.149 81.6301 893.989C81.4685 893.989 81.3068 893.989 81.3068 894.15C81.1452 894.31 80.3369 895.273 79.852 895.594C79.6904 894.47 79.6904 893.829 79.3671 893.668C79.2055 893.668 79.2054 893.508 79.0438 893.668C78.8821 893.668 78.5589 893.989 77.9123 894.952C77.9123 894.47 78.0739 893.989 78.0739 893.829V893.668L77.9123 893.508C77.4274 893.508 74.6794 893.347 74.1945 893.508C73.8712 893.508 73.7096 893.829 73.5479 894.47C73.2246 894.47 72.9013 894.47 72.578 894.47C72.4164 894.47 72.0931 894.47 71.9315 894.47C71.9315 894.47 71.9315 894.47 71.7698 894.47H71.6082C71.4465 894.47 71.4465 894.791 71.4465 894.791C71.4465 894.952 71.7698 894.952 71.7698 894.952C71.9315 894.952 72.0931 894.952 72.2548 894.952C72.2548 894.952 72.4164 894.952 72.4164 895.112C72.5781 895.273 72.578 895.433 72.578 895.433C72.578 895.594 72.2548 895.754 71.2849 895.594C70.9616 895.594 70.1534 895.433 70.315 894.952C70.315 894.47 71.6082 893.668 72.4164 893.829C72.5781 893.829 72.7397 893.668 72.7397 893.508C72.7397 893.347 72.5781 893.187 72.4164 893.187C71.4465 893.026 70.315 893.668 69.8301 894.31C69.6685 894.15 69.6684 893.829 69.3452 893.668C68.8602 893.347 68.3753 893.187 67.7287 893.508C67.5671 893.347 67.4054 893.347 67.4054 893.508C67.2438 893.668 66.1123 894.791 66.4356 895.594C66.5972 896.075 67.2438 896.396 68.2137 896.396C68.8602 896.396 69.3452 896.075 69.6685 895.754C69.8301 896.075 70.315 896.236 70.9616 896.396C71.1232 896.396 71.4465 896.396 71.6082 896.396C72.4164 896.396 72.7397 896.075 72.7397 895.915C72.7397 896.075 72.7397 896.075 72.7397 896.075C72.7397 896.236 72.7397 896.396 72.9013 896.396C72.9013 896.396 74.6794 896.878 75.8109 895.754C75.9726 895.594 75.9726 895.433 75.8109 895.433C75.6493 895.273 75.4876 895.273 75.4876 895.433C74.8411 896.075 73.7096 896.075 73.2246 895.915C73.2246 895.754 73.2246 895.433 73.3863 895.273C74.1945 895.273 74.8411 895.273 75.1643 895.273C75.326 895.273 75.4876 895.112 75.4876 894.952C75.4876 894.791 75.326 894.631 75.1643 894.631C74.6794 894.631 74.0328 894.631 73.5479 894.631C73.5479 894.47 73.7096 894.15 73.7096 894.15C74.0329 894.15 75.4876 894.15 76.9424 894.15C76.9424 894.631 76.7808 895.433 76.6191 895.915C76.6191 896.075 76.6191 896.236 76.7808 896.396H76.9424C77.1041 896.396 77.2657 896.236 77.4274 896.075C77.589 895.915 77.589 895.754 77.7507 895.433C77.9123 895.112 78.3972 894.47 78.5589 894.15C78.7205 894.47 78.7205 895.273 78.7205 895.594C78.7205 895.754 78.7205 895.915 78.7205 896.075C78.7205 896.236 78.8822 896.236 78.8822 896.396C79.0438 896.396 79.2055 896.396 80.1753 895.433C80.337 895.273 80.337 895.273 80.4986 895.112C80.4986 895.754 80.4986 896.075 80.6602 896.236C80.8219 896.236 80.9835 896.396 81.3068 896.236C81.6301 896.075 82.115 895.594 82.6 895.273C82.6 895.433 82.6 895.754 82.7616 895.915C82.9232 896.236 83.2465 896.396 83.7315 896.236C84.5397 896.236 85.5096 895.754 85.8329 895.112C87.126 894.952 87.7726 894.791 87.7726 894.791ZM69.6685 895.273C69.5068 895.594 69.1835 895.754 68.6986 895.754C68.052 895.754 67.5671 895.594 67.4054 895.433C67.2438 895.112 67.5671 894.631 67.8904 894.31C68.052 894.31 68.052 894.31 68.2137 894.31C68.6986 893.989 69.0219 894.15 69.3452 894.31C69.6684 894.47 69.8301 894.952 69.6685 895.273ZM73.3863 895.433C73.3863 895.273 73.3863 895.273 73.2246 895.112H73.3863C73.3863 895.273 73.3863 895.273 73.3863 895.433ZM84.2164 894.31C85.3479 894.31 85.8328 894.47 85.9945 894.631C85.3479 894.791 84.7013 894.791 84.0548 894.631C84.0548 894.631 84.0548 894.47 84.2164 894.31ZM84.378 895.754C84.2164 895.754 83.8931 895.754 83.8931 895.594C83.8931 895.433 83.8931 895.433 83.8931 895.112C84.2164 895.273 84.7013 895.273 85.0246 895.273C85.1863 895.273 85.3479 895.273 85.5095 895.273C85.1863 895.433 84.7013 895.754 84.378 895.754Z" fill="#009EE2"/>
<path fill-rule="evenodd" clip-rule="evenodd" d="M92.6219 891.903C92.9452 891.261 92.7835 890.94 92.6219 890.779C91.8137 889.816 88.7424 890.619 88.0959 890.779C87.9342 890.779 87.9342 890.94 87.9342 891.1C87.9342 891.261 88.0959 891.261 88.2575 891.261C89.7123 890.94 91.8137 890.458 92.2986 890.94C92.4603 891.1 92.4603 891.261 92.2986 891.421C91.8137 892.545 90.6822 892.866 89.8739 893.026C89.8739 892.866 89.8739 892.705 89.7123 892.705C89.5507 892.705 89.389 892.705 89.389 892.866C89.389 893.026 89.2274 893.026 89.2274 893.187C88.9041 893.187 88.5808 893.187 88.5808 893.187C88.4192 893.187 88.2575 893.187 88.2575 893.347C88.2575 893.508 88.2575 893.668 88.4191 893.668C88.4191 893.668 88.5808 893.668 88.9041 893.668C88.4191 894.631 87.9342 895.754 87.9342 895.754C87.9342 895.915 87.9342 896.075 88.0959 896.075H88.2575C88.4192 896.075 88.4192 896.075 88.5808 895.915C88.5808 895.754 89.2274 894.47 89.7123 893.508C90.3589 893.668 91.9753 893.347 92.6219 891.903Z" fill="#009EE2"/>
<path fill-rule="evenodd" clip-rule="evenodd" d="M95.0465 893.347C94.8849 893.347 94.8849 893.347 95.0465 893.347L91.0054 893.668C90.8438 893.668 90.8438 893.829 90.6821 893.829L90.0355 895.754C90.0355 895.915 90.0355 896.075 90.1972 896.075C90.1972 896.075 90.8438 896.236 91.4903 896.236C91.9753 896.236 92.6218 896.075 93.2684 895.754C93.4301 895.594 93.4301 895.433 93.2684 895.433C93.1068 895.273 92.9451 895.273 92.9451 895.433C92.1369 895.915 91.167 895.754 90.6821 895.754L90.8437 895.273H91.0054C91.4903 895.273 92.4602 895.112 92.6218 895.112C92.7835 895.112 92.9451 894.952 92.9451 894.791C92.9451 894.631 92.7835 894.471 92.6218 894.471C91.9753 894.471 91.3287 894.631 91.0054 894.631L91.167 894.15L94.5616 893.829C94.3999 894.31 94.2383 894.952 93.915 895.915C93.915 896.075 93.915 896.075 94.0766 896.236H94.2383H94.3999C95.8547 895.433 96.5013 894.791 96.5013 894.31C96.3396 893.668 95.2081 893.508 95.0465 893.347ZM94.7232 895.594C94.8849 894.952 95.0465 894.31 95.2081 893.989C95.5314 894.15 95.8547 894.31 95.8547 894.471C95.8547 894.631 95.8547 894.952 94.7232 895.594Z" fill="#009EE2"/>
<path fill-rule="evenodd" clip-rule="evenodd" d="M107.331 894.31C106.523 894.15 105.23 894.31 103.937 894.47C103.775 894.47 103.614 894.47 103.29 894.47C103.29 894.31 103.29 894.149 103.129 893.989C102.967 893.508 102.482 893.347 101.836 893.347C100.866 893.347 100.219 893.989 99.7342 894.47C99.5726 894.791 99.2493 894.952 99.0877 895.273C99.2493 894.791 99.4109 894.31 99.2493 893.989C99.2493 893.829 99.0877 893.668 98.7644 893.668C98.2794 893.508 97.7945 893.829 97.1479 894.791C97.1479 893.829 96.9863 893.668 96.8246 893.508C96.663 893.508 96.5013 893.508 96.5013 893.668C96.5013 893.829 96.5013 893.829 96.5013 893.989C96.663 894.31 96.5013 896.075 96.5013 896.236C96.5013 896.396 96.5014 896.557 96.663 896.557C96.663 896.557 96.663 896.557 96.8246 896.557C96.9863 896.557 97.1479 896.396 97.1479 896.236C97.9562 893.989 98.4411 894.15 98.6027 894.15C98.6027 894.15 98.6027 894.15 98.7644 894.15C98.926 894.31 98.6027 894.952 98.4411 895.273C98.2794 895.754 98.1178 896.075 98.2794 896.236C98.2794 896.236 98.4411 896.396 98.6027 896.396C98.926 896.396 99.0877 896.075 99.5726 895.594C99.7342 896.075 100.381 896.236 101.189 896.396C101.836 896.396 102.482 896.236 102.805 895.594C102.967 895.433 102.967 895.273 102.967 895.112C103.129 895.112 103.452 895.112 103.614 895.112C104.745 894.952 106.038 894.791 106.847 894.952C107.008 894.952 107.17 894.952 107.17 894.791C107.493 894.631 107.331 894.47 107.331 894.31ZM101.836 893.829C102.159 893.829 102.482 893.989 102.644 894.15C102.644 894.31 102.644 894.31 102.805 894.47C101.997 894.47 101.351 894.31 100.866 894.15C101.189 893.989 101.512 893.829 101.836 893.829ZM101.512 895.754C100.542 895.754 100.381 895.433 100.219 895.273C100.219 895.112 100.219 894.952 100.381 894.791V894.631C100.381 894.631 101.512 895.112 102.644 895.112V895.273C102.482 895.433 102.159 895.754 101.512 895.754Z" fill="#009EE2"/>
<path fill-rule="evenodd" clip-rule="evenodd" d="M64.9808 894.952C65.6274 894.471 66.1123 893.989 66.4356 893.187C66.5972 892.705 66.5972 892.063 66.2739 891.742C65.1424 889.977 61.1013 889.496 60.9397 889.496C60.778 889.496 60.6164 889.656 60.6164 889.817C60.6164 889.977 60.778 890.138 60.9397 890.138C62.0712 890.298 65.1424 890.94 65.9507 892.224C66.1123 892.545 66.1123 892.866 66.1123 893.187C65.789 893.829 65.3041 894.47 64.8192 894.791C64.6575 894.791 64.6575 894.631 64.4958 894.631C62.5561 893.508 59.9698 893.026 59.3232 893.668C59.1616 893.829 59 894.15 59.3232 894.631C59.9698 895.754 61.263 896.236 62.7178 896.075C63.3644 896.075 64.0109 895.754 64.6575 895.433C65.9507 896.396 67.5671 898.001 66.7589 900.569C66.7589 900.729 66.7589 900.89 66.9205 900.89C66.9205 900.89 66.9205 900.89 67.0822 900.89C67.2438 900.89 67.2438 900.89 67.4054 900.729C67.8904 899.445 67.7287 898.162 67.0822 897.038C66.4356 896.075 65.789 895.433 64.9808 894.952ZM62.5561 895.273C61.263 895.433 60.1315 894.952 59.6465 894.15C59.6465 893.989 59.4849 893.989 59.6465 893.829C59.8082 893.668 59.9698 893.668 60.2931 893.668C61.1013 893.668 62.5561 893.989 64.0109 894.791C63.526 895.112 63.0411 895.273 62.5561 895.273Z" fill="#009EE2"/>
<path fill-rule="evenodd" clip-rule="evenodd" d="M81.7917 893.668C82.2766 893.668 82.4382 893.187 82.2766 893.187C82.115 893.187 81.7917 893.187 81.7917 893.187C81.7917 893.347 81.3068 893.668 81.7917 893.668Z" fill="#009EE2"/>
<path d="M227.271 680.71C226.948 680.87 226.625 680.87 226.14 680.87L186.537 665.464L166.493 697.721C166.17 698.202 165.523 698.363 165.038 698.202L146.288 689.215L131.416 709.757C131.093 710.238 130.608 710.399 130.123 710.238L98.1178 699.486C97.4713 699.325 97.148 698.684 97.3096 698.042C97.4713 697.4 98.1179 697.079 98.7644 697.239L129.962 707.67L144.833 687.129C145.156 686.647 145.803 686.487 146.288 686.808L164.877 695.634L184.921 663.378C185.244 662.896 185.89 662.736 186.375 662.896L225.816 678.302L235.192 662.254C235.515 661.773 236.162 661.452 236.808 661.773C237.293 662.094 237.616 662.736 237.293 663.378L227.433 680.228C227.433 680.549 227.433 680.71 227.271 680.71Z" fill="#E2A700"/>
<path d="M130.447 712.164C130.123 712.164 129.8 712.164 129.477 712.004L97.4712 701.251C95.8548 700.77 95.0466 699.005 95.5315 697.4C96.0164 695.795 97.7945 694.993 99.4109 695.474L129.315 705.584L143.378 686.166C144.186 684.882 145.803 684.561 147.258 685.203L164.392 693.388L183.627 662.575C184.436 661.291 186.052 660.81 187.345 661.291L225.331 676.056L233.899 661.452C234.384 660.81 235.03 660.168 235.838 660.008C236.647 659.847 237.455 659.847 238.263 660.329C238.91 660.81 239.556 661.452 239.718 662.254C239.879 663.057 239.879 663.859 239.395 664.662L229.534 681.512C229.211 681.994 228.888 682.314 228.564 682.635C227.756 683.117 226.625 683.277 225.816 682.956L187.83 668.032L168.11 698.684C167.301 699.967 165.523 700.449 164.068 699.807L146.773 691.622L132.871 710.88C132.386 711.683 131.416 712.164 130.447 712.164Z" fill="#E2A700"/>
<path d="M253.134 820.649L252.326 810.378C249.901 812.786 245.699 816.156 238.748 818.723C235.515 820.007 231.797 820.489 228.403 820.649C236.97 820.649 253.134 820.649 253.134 820.649Z" fill="#8E3314"/>
</g>
<defs>
<clipPath id="clip0_691_69">
<rect width="590" height="463" fill="white" transform="translate(0 444)"/>
</clipPath>
</defs>
</svg>
