<svg width="39" height="59" viewBox="0 0 39 59" fill="none" xmlns="http://www.w3.org/2000/svg">
<path d="M20.4048 57.9146C23.5854 54.205 26.5275 50.2671 29.2106 46.1282C29.8892 45.0767 30.5678 43.9914 31.2306 42.8551C35.2863 36.0716 38.8843 27.9143 38.8843 20.8086C38.8969 15.9846 37.3532 11.3051 34.5162 7.56668C31.6791 3.8283 27.724 1.26219 23.3243 0.30526C22.2244 0.102634 21.1105 0.000515244 19.9945 0C14.9008 0.022503 10.0071 2.13337 6.31239 5.9017C4.3748 7.66901 2.80971 9.85956 1.72129 12.3275C0.632872 14.7955 0.04609 17.4843 0 20.215C0 20.3846 0 20.5542 0 20.7238C0 28.2535 3.42447 36.2242 7.35394 42.8551C8.01674 43.9914 8.7111 45.0767 9.38968 46.1282C12.1346 50.3324 15.179 54.3014 18.4953 57.9994L19.4422 59L20.4048 57.9146ZM9.35812 41.0914C5.7285 34.9014 2.5723 27.5243 2.5723 20.7407V20.2828C2.59033 17.9393 3.07414 15.6269 3.99134 13.5005C4.90853 11.3742 6.23793 9.48306 7.89049 7.95372C11.1133 4.71916 15.3188 2.85114 19.7262 2.69646H19.9472C20.9226 2.70124 21.8951 2.80916 22.8509 3.01868C26.645 3.87041 30.0514 6.09767 32.4993 9.32723C34.9471 12.5568 36.2877 16.5924 36.2963 20.7577C36.2963 27.1342 33.1401 34.3248 29.4473 40.6674C26.5442 45.5934 23.2775 50.2608 19.6789 54.6246L19.3948 54.9638L19.1265 54.6416C15.5346 50.4462 12.3022 45.9111 9.46859 41.0914H9.35812Z" fill="white"/>
<path d="M19.4577 11.5151C17.5124 11.5199 15.6288 12.2492 14.1276 13.5786C12.6264 14.9081 11.6005 16.7556 11.2244 18.8067C10.8483 20.8577 11.1454 22.9854 12.065 24.8275C12.9847 26.6696 14.47 28.1122 16.2682 28.9097C18.0663 29.7072 20.0661 29.8102 21.927 29.2013C23.7879 28.5924 25.3949 27.3092 26.4744 25.5701C27.5538 23.831 28.039 21.7436 27.8473 19.6633C27.6556 17.583 26.7988 15.6385 25.4229 14.1607C23.8389 12.4648 21.6936 11.5134 19.4577 11.5151ZM19.4577 26.8799C18.2966 26.8799 17.1616 26.5099 16.1962 25.8167C15.2308 25.1235 14.4783 24.1382 14.034 22.9854C13.5897 21.8327 13.4734 20.5642 13.6999 19.3404C13.9264 18.1166 14.4856 16.9925 15.3066 16.1103C16.1276 15.228 17.1736 14.6271 18.3124 14.3837C19.4512 14.1403 20.6315 14.2652 21.7042 14.7427C22.7769 15.2202 23.6938 16.0288 24.3388 17.0663C24.9839 18.1037 25.3282 19.3234 25.3282 20.5712C25.3303 21.4003 25.1799 22.2217 24.8856 22.9881C24.5913 23.7545 24.1589 24.4508 23.6134 25.0371C23.0679 25.6234 22.4199 26.088 21.7067 26.4042C20.9935 26.7205 20.2292 26.8821 19.4577 26.8799Z" fill="white"/>
</svg>
