<svg width="340" height="89" viewBox="0 0 340 89" fill="none" xmlns="http://www.w3.org/2000/svg">
<path d="M44.997 17.0693L1.88586 27.8619V35.8276L6.24622 38.9061L1.88586 39.9961V71.0084L17.0931 81.765L60.2042 70.9724V63.0067L55.8438 59.9283L60.2042 58.8263V27.826L44.997 17.0693Z" fill="#E7E8E9"/>
<path d="M17.3453 50.2736L17.045 81.765L60.1562 70.9843V63.0187L24.8649 71.8468V56.0831L47.3513 50.4532V43.1703L17.3453 50.2736ZM17.0931 38.6185V46.5722L52.3844 37.7441V53.5078L29.8979 59.1257V66.4205L60.2042 58.8382V27.8259L17.0931 38.6185Z" fill="#F08236"/>
<path d="M1.88586 35.8275L17.0931 46.5722V38.6065L1.88586 27.8618V35.8275Z" fill="#494245"/>
<path d="M1.88586 71.0083L17.0931 81.765L17.3573 50.2736L1.88586 39.9961V71.0083Z" fill="#494245"/>
<path d="M52.3844 37.7441V53.5078L47.3994 50.4533V43.1704L43.1351 40.0799L52.3844 37.7441Z" fill="#494245"/>
<path d="M29.8979 59.1258V66.4087L24.9249 62.899V56.0713L29.8979 59.1258Z" fill="#494245"/>
<path d="M164.432 73.0687L163.231 70.4334L162.03 73.0687H164.432ZM163.435 67.7622L167.964 77.4288H166.486L165.033 74.3863H161.321L159.88 77.4288H158.378L162.943 67.7622H163.435ZM153.489 71.8588C153.622 71.8828 153.754 71.8828 153.886 71.8588L154.198 71.7151C154.306 71.6791 154.39 71.6073 154.45 71.5115L154.631 71.2599C154.775 71.0323 154.847 70.7688 154.847 70.5053C154.847 70.2537 154.775 70.0022 154.631 69.7866C154.571 69.6787 154.486 69.5829 154.39 69.4991C154.318 69.4272 154.234 69.3553 154.15 69.2954C153.958 69.1996 153.742 69.1637 153.525 69.1757H152.108V71.8828L153.489 71.8588ZM157.321 77.4528H155.628L152.312 73.1645H152.108V77.4528H150.751V67.8101H153.441H153.838C153.91 67.7981 153.994 67.7981 154.066 67.8101H154.21C155.64 68.1695 156.504 69.6308 156.144 71.0563C156.084 71.3078 155.976 71.5474 155.844 71.775C155.712 71.9906 155.555 72.1822 155.363 72.338C155.171 72.5057 154.955 72.6374 154.727 72.7333L154.342 72.9129L153.982 73.0327L157.321 77.4528ZM148.288 72.6015C148.3 71.9427 148.132 71.2958 147.82 70.7209C147.495 70.1579 147.015 69.6907 146.45 69.3673C145.874 69.0439 145.237 68.8762 144.577 68.8762C143.928 68.8762 143.303 69.0439 142.739 69.3673C142.186 69.7027 141.718 70.1699 141.381 70.7329C141.057 71.3198 140.889 71.9786 140.901 72.6494C140.889 73.1405 140.985 73.6316 141.165 74.0868C141.345 74.542 141.622 74.9493 141.97 75.2847C142.655 75.9794 143.592 76.3747 144.577 76.3627C145.237 76.3627 145.886 76.195 146.462 75.8716C147.027 75.5602 147.495 75.081 147.808 74.518C148.132 73.9431 148.3 73.2843 148.288 72.6015ZM148.204 69.0199C150.162 71.0203 150.162 74.2066 148.204 76.207C147.267 77.1892 145.958 77.7163 144.601 77.6804C143.243 77.6923 141.946 77.1653 140.997 76.207C140.012 75.2727 139.483 73.967 139.519 72.6135C139.519 71.7151 139.748 70.8287 140.192 70.0381C140.625 69.2595 141.273 68.6246 142.042 68.1814C142.799 67.7382 143.664 67.4987 144.54 67.5106C145.91 67.4747 147.243 68.0018 148.216 68.96L148.204 69.0199ZM131.988 67.7622H138.919V69.0918H136.144V77.4767H134.763V69.0918H131.976L131.988 67.7622ZM131.243 67.7622V73.5478C131.243 73.9431 131.219 74.3503 131.183 74.7456C131.159 75.0571 131.087 75.3565 131.003 75.656C130.799 76.231 130.438 76.7221 129.958 77.0934C129.417 77.5007 128.757 77.7163 128.072 77.7043C127.351 77.7163 126.643 77.5246 126.042 77.1294C125.465 76.782 125.045 76.231 124.841 75.5961C124.769 75.3446 124.733 75.081 124.709 74.8175C124.685 74.4222 124.685 74.0149 124.709 73.6197V67.8341H126.066V74.4941C126.066 74.6618 126.066 74.7696 126.066 74.8175C126.09 75.105 126.186 75.3805 126.342 75.632C126.522 75.8716 126.763 76.0633 127.039 76.1711C127.58 76.4346 128.204 76.4346 128.757 76.195C128.997 76.0752 129.213 75.9075 129.381 75.7039C129.549 75.4763 129.682 75.2248 129.754 74.9493C129.766 74.8055 129.766 74.6738 129.754 74.53C129.754 74.3384 129.754 74.015 129.754 73.5598V67.7742L131.243 67.7622ZM119.568 71.8828C119.7 71.9067 119.844 71.9067 119.976 71.8828L120.288 71.739C120.384 71.6911 120.48 71.6193 120.54 71.5354L120.721 71.2839C120.865 71.0563 120.937 70.7927 120.925 70.5292C120.937 70.2777 120.865 70.0261 120.721 69.8105C120.649 69.7027 120.565 69.6069 120.468 69.523C120.396 69.4512 120.312 69.3793 120.228 69.3194C120.036 69.2236 119.832 69.1876 119.616 69.1996H118.186V71.9067L119.568 71.8828ZM123.399 77.4767H121.718L118.402 73.1884H118.198V77.4767H116.841V67.8101H119.531H119.928H120.156H120.3C120.865 67.9299 121.369 68.2294 121.742 68.6726C122.138 69.1397 122.342 69.7386 122.318 70.3495C122.33 70.8526 122.198 71.3438 121.934 71.775C121.802 71.9906 121.646 72.1703 121.453 72.338C121.261 72.4937 121.045 72.6255 120.817 72.7333L120.42 72.9129C120.312 72.9608 120.192 73.0088 120.072 73.0327L123.399 77.4767ZM108.853 67.7622H115.784V69.0918H113.009V77.4767H111.64V69.0918H108.853V67.7622ZM107.519 73.404C107.82 73.8473 107.976 74.3743 107.988 74.9133C107.988 75.632 107.688 76.3148 107.159 76.8059C106.631 77.333 105.898 77.6205 105.153 77.6085C104.565 77.6085 104 77.4408 103.507 77.1174C102.943 76.7101 102.486 76.1711 102.186 75.5362L102.078 75.3685L103.279 74.6618L103.387 74.8654C103.592 75.2727 103.88 75.644 104.228 75.9555C104.48 76.1591 104.793 76.2789 105.117 76.2789C105.393 76.2789 105.658 76.219 105.898 76.0992C106.114 75.9794 106.294 75.7997 106.426 75.5961C106.546 75.3925 106.607 75.1649 106.607 74.9253C106.607 74.6378 106.51 74.3623 106.33 74.1347C105.898 73.5837 105.381 73.1046 104.805 72.7093C104.252 72.326 103.76 71.8828 103.315 71.3917C102.979 70.9485 102.787 70.4094 102.787 69.8584C102.787 69.4392 102.895 69.0199 103.099 68.6606C103.207 68.4809 103.339 68.3132 103.495 68.1695C103.652 68.0257 103.82 67.9059 104 67.7981C104.372 67.5945 104.781 67.4867 105.201 67.4867C105.658 67.4747 106.114 67.6065 106.51 67.846C107.015 68.1455 107.459 68.5528 107.784 69.0439L107.916 69.2116L106.835 70.0381L106.691 69.8704C106.462 69.547 106.186 69.2595 105.874 69.008C105.658 68.8882 105.417 68.8283 105.165 68.8283C104.889 68.8043 104.613 68.9121 104.408 69.1038C104.216 69.2835 104.108 69.523 104.108 69.7866C104.12 69.9542 104.156 70.1339 104.228 70.2896C104.336 70.4933 104.468 70.673 104.637 70.8287C104.733 70.9245 104.841 71.0084 104.949 71.0802C105.105 71.212 105.393 71.4276 105.814 71.7271C106.474 72.1822 107.051 72.7333 107.519 73.3681V73.404ZM99.7477 67.8101H101.129V77.4647H100.613L94.8228 70.8407V77.4647H93.4414V67.8101H93.9219L99.7477 74.53V67.8101ZM90.9669 72.6015C90.9789 71.9427 90.8107 71.2958 90.4984 70.7209C90.1741 70.1579 89.6936 69.6907 89.1291 69.3673C88.5525 69.0439 87.9159 68.8762 87.2552 68.8762C86.6065 68.8762 85.9819 69.0439 85.4174 69.3673C84.8648 69.7027 84.3963 70.1699 84.06 70.7329C83.7357 71.3198 83.5675 71.9786 83.5795 72.6494C83.5675 73.1405 83.6636 73.6316 83.8438 74.0868C84.024 74.542 84.3002 74.9493 84.6486 75.2847C85.3333 75.9794 86.2702 76.3747 87.2552 76.3627C87.9159 76.3627 88.5645 76.195 89.1411 75.8716C89.7056 75.5482 90.1741 75.081 90.4864 74.518C90.8108 73.9431 90.9789 73.2843 90.9669 72.6015ZM90.8828 69.0199C92.8408 71.0203 92.8408 74.2066 90.8828 76.207C89.9339 77.1773 88.6366 77.7043 87.2792 77.6804C85.9219 77.6923 84.6246 77.1653 83.6756 76.207C82.6906 75.2727 82.1621 73.967 82.1981 72.6135C82.1981 71.7151 82.4264 70.8287 82.8708 70.0381C83.3032 69.2595 83.9519 68.6246 84.7207 68.1814C85.4774 67.7382 86.3423 67.4987 87.2192 67.5106C88.5885 67.4747 89.9219 68.0018 90.8948 68.96L90.8828 69.0199ZM81.5135 75.5123L81.3813 75.68C80.9128 76.2909 80.2882 76.782 79.5795 77.1054C78.8228 77.4528 78.0059 77.6205 77.1771 77.6085C75.6636 77.6684 74.1981 77.0575 73.1891 75.9195C72.3843 74.9613 71.9519 73.7394 71.9879 72.4817C71.9519 71.1281 72.4924 69.8225 73.4774 68.8882C74.4624 67.9179 75.8077 67.4028 77.1891 67.4388C77.6216 67.4388 78.054 67.4867 78.4744 67.5705C79.6516 67.8341 80.6966 68.5049 81.4053 69.4751L81.5375 69.6428L80.4684 70.4573L80.3363 70.2896C79.9759 69.8105 79.5074 69.4272 78.9669 69.1637C77.7897 68.6007 76.3963 68.6366 75.2552 69.2835C74.6786 69.5949 74.2101 70.0621 73.8858 70.625C73.5375 71.2 73.3693 71.8588 73.3813 72.5296C73.3813 73.0327 73.4774 73.5358 73.6576 74.003C73.8498 74.4582 74.1381 74.8654 74.4864 75.2008C74.6666 75.3805 74.8588 75.5362 75.063 75.668C75.2672 75.7997 75.4834 75.9075 75.7116 76.0034C76.2041 76.1831 76.7327 76.2789 77.2612 76.2789C77.8498 76.2789 78.4264 76.1591 78.9549 75.9075C79.4954 75.656 79.9759 75.2847 80.3483 74.8175L80.4804 74.6738L81.5135 75.5123Z" fill="#F08236"/>
<path d="M129.477 43.6736C131.135 43.3622 132.625 42.4758 133.682 41.1581C134.631 39.589 135.063 37.7682 134.943 35.9355C134.943 33.0607 134.282 31.0004 132.973 29.7546C131.64 28.5568 129.453 27.874 126.366 27.874H104.889V61.821H118.102V47.8062H119.58C120.132 47.7463 120.685 47.9499 121.069 48.3572C121.405 48.9202 121.562 49.579 121.49 50.2378V61.821H134.955V53.0767C135.099 50.8248 134.655 48.5848 133.67 46.5485C132.745 45.0511 131.219 44.009 129.477 43.6736ZM121.069 39.8764C120.685 40.2717 120.144 40.4634 119.592 40.4035H118.114V35.6121H119.592C120.144 35.5522 120.697 35.7439 121.081 36.1392C121.417 36.7141 121.574 37.3849 121.502 38.0437C121.562 38.6786 121.429 39.3254 121.093 39.8764H121.069Z" fill="#1E1E1C"/>
<path d="M93.5975 27.6702H79.7477C76.7807 27.6702 74.7026 28.2811 73.4894 29.5029C72.2882 30.7007 71.6876 32.8209 71.6876 35.7796V54.7415C71.5074 56.7778 72.2162 58.8022 73.6216 60.2875C74.9189 61.4614 76.9609 62.0484 79.7477 62.0484H93.5975C96.5885 62.0484 98.7387 61.4854 100.036 60.3474C101.333 59.2095 101.982 57.3408 101.994 54.7415V47.9737H88.5285V51.9026C88.5765 52.5494 88.4324 53.1963 88.1081 53.7593C87.8078 54.1665 87.3153 54.3941 86.8108 54.3582C86.3183 54.3941 85.8258 54.1785 85.5375 53.7712C85.2252 53.1963 85.093 52.5494 85.1411 51.9026V37.78C85.093 37.1332 85.2252 36.4863 85.5375 35.9114C85.8378 35.5161 86.3183 35.2885 86.8108 35.3244C87.3153 35.2765 87.8198 35.4921 88.1321 35.8874C88.4444 36.4624 88.5885 37.1212 88.5285 37.78V40.2595H101.994V35.7916C101.994 32.785 101.381 30.6887 100.168 29.4789C98.9549 28.2691 96.7687 27.6702 93.5975 27.6702Z" fill="#1E1E1C"/>
<path d="M166.835 41.1342C167.784 39.577 168.228 37.7563 168.108 35.9355C168.108 33.0847 167.447 31.0244 166.126 29.7666C164.805 28.5089 162.595 27.874 159.495 27.874H138.018V61.821H159.495C162.667 61.821 164.889 61.1622 166.186 59.8685C167.483 58.5748 168.108 56.275 168.108 53.0887C168.252 50.8367 167.808 48.5968 166.823 46.5604C165.886 45.0511 164.348 43.997 162.595 43.6856C164.276 43.3861 165.79 42.4758 166.835 41.1342ZM154.655 51.6034C154.715 52.2742 154.57 52.945 154.234 53.5199C153.838 53.9152 153.285 54.0949 152.733 54.035H151.267V47.8062H152.781C153.345 47.7463 153.898 47.9499 154.282 48.3572C154.619 48.9202 154.763 49.579 154.703 50.2378L154.655 51.6034ZM154.21 39.8764C153.826 40.2717 153.285 40.4634 152.733 40.4035H151.267V35.6121H152.781C153.333 35.5522 153.886 35.7439 154.282 36.1392C154.619 36.7141 154.763 37.3849 154.703 38.0437C154.751 38.6906 154.583 39.3374 154.21 39.8764Z" fill="#1E1E1C"/>
<path d="M168.288 26.736L168.144 26.6522C168.264 26.6522 168.384 26.5923 168.481 26.5084C168.637 26.3647 168.661 26.1371 168.541 25.9574C168.493 25.8856 168.42 25.8376 168.336 25.8017C168.192 25.7897 168.06 25.7897 167.916 25.8017H167.363V27.4308H167.616V26.736H167.772C167.844 26.736 167.928 26.748 167.988 26.7959C168.096 26.9037 168.192 27.0355 168.264 27.1673L168.408 27.4308H168.721L168.529 27.1074C168.456 26.9876 168.384 26.8558 168.288 26.736ZM167.94 26.4725H167.616V25.9814H167.916H168.18C168.228 26.0053 168.264 26.0293 168.288 26.0652C168.3 26.1131 168.3 26.1491 168.288 26.197C168.288 26.2689 168.252 26.3288 168.204 26.3767C168.132 26.4366 168.036 26.4725 167.94 26.4725Z" fill="#1E1E1C"/>
<path d="M169.333 25.7896C169.201 25.55 169.009 25.3583 168.769 25.2385C168.54 25.1068 168.288 25.0349 168.024 25.0349C167.76 25.0349 167.507 25.1068 167.279 25.2385C167.039 25.3583 166.847 25.55 166.715 25.7896C166.438 26.2567 166.438 26.8317 166.715 27.2988C166.835 27.5384 167.027 27.7301 167.267 27.8498C167.495 27.9816 167.76 28.0535 168.024 28.0535C168.565 28.0415 169.057 27.754 169.333 27.2988C169.598 26.8317 169.598 26.2687 169.333 25.7896ZM169.117 27.1671C169.009 27.3707 168.853 27.5264 168.649 27.6342C168.456 27.742 168.24 27.8019 168.024 27.8019C167.808 27.8019 167.592 27.742 167.399 27.6342C167.195 27.5264 167.039 27.3707 166.931 27.1671C166.823 26.9754 166.763 26.7598 166.763 26.5442C166.763 26.3286 166.823 26.113 166.931 25.9213C167.039 25.7177 167.195 25.562 167.399 25.4542C167.772 25.2385 168.228 25.2385 168.601 25.4542C168.805 25.562 168.973 25.7177 169.081 25.9213C169.297 26.2926 169.297 26.7478 169.081 27.1192L169.117 27.1671Z" fill="#1E1E1C"/>
<path d="M213.525 40.3315L209.622 62.0245H210.799L211.568 57.4248H216.733L217.538 62.0245H218.679L214.751 40.3315C214.763 40.3315 213.525 40.3315 213.525 40.3315ZM211.784 56.2869L214.138 42.5835L216.516 56.2869H211.784Z" fill="#EF8034"/>
<path d="M231.928 40.2834H230.871C228.492 40.2834 227.279 41.4813 227.279 43.7692V58.6704C227.279 60.9822 228.48 62.1921 230.871 62.1921H231.928C234.306 62.1921 235.52 60.9942 235.52 58.6704V43.7572C235.52 41.4813 234.306 40.2834 231.928 40.2834ZM234.306 58.7303C234.306 60.2755 233.502 61.0421 231.892 61.0421H230.907H230.895C229.297 61.0421 228.493 60.2635 228.493 58.7303V43.7332C228.493 42.188 229.297 41.4214 230.907 41.4214H231.892C233.502 41.4214 234.306 42.2 234.306 43.7332V58.7303Z" fill="#EF8034"/>
<path d="M245.417 51.0162C246.751 50.6209 247.579 49.6267 247.579 47.6263V43.9609C247.579 41.649 246.402 40.4392 244.024 40.4392H239.904V62.0484H244.048C246.426 62.0484 247.64 60.8505 247.64 58.5267V54.454C247.64 52.4416 246.751 51.4235 245.417 51.0162ZM241.081 41.5772H243.988C245.598 41.5772 246.402 42.3558 246.402 43.889V47.806C246.402 49.5908 245.417 50.4532 243.555 50.4532H241.081V41.5772ZM246.438 58.5746C246.438 60.1198 245.634 60.8864 244.06 60.8864H241.093V51.6031H243.64C245.465 51.6031 246.45 52.5015 246.45 54.2863V58.5746H246.438Z" fill="#EF8034"/>
<path d="M257.405 51.6032C258.703 51.148 259.568 50.2496 259.568 48.1773V43.9489C259.568 41.6371 258.39 40.4272 256.012 40.4272H252.012V62.0244H253.213V52.2021H255.628C257.49 52.2021 258.39 53.0645 258.39 54.8853V62.0364H259.592V54.8493C259.616 52.8729 258.787 51.9386 257.405 51.6032ZM253.237 51.0402V41.5772H256H256.012C257.622 41.5772 258.39 42.3558 258.39 43.889V48.357C258.39 50.1418 257.49 51.0402 255.676 51.0402H253.237Z" fill="#EF8034"/>
<path d="M267.363 40.3315L263.471 62.0245H264.637L265.405 57.4248H270.571L271.375 62.0245H272.516L268.601 40.3315H267.363ZM265.622 56.2869L267.976 42.5835L270.366 56.2869H265.622Z" fill="#EF8034"/>
<path d="M282.523 51.6031H287.375V50.4532H282.523V41.5772H287.532V40.4392H281.309V62.0244H287.592V60.8865H282.523V51.6031Z" fill="#EF8034"/>
<path d="M286.811 36.6421H285.574L284.06 39.0617H284.901L286.811 36.6421Z" fill="#EF8034"/>
<path d="M299.88 40.3315L295.988 62.0245H297.153L297.922 57.4248H303.087L303.892 62.0245H305.033L301.117 40.3315H299.88ZM298.138 56.2869L300.492 42.5835L302.871 56.2869H298.138Z" fill="#EF8034"/>
<path d="M314.282 51.6032C315.579 51.148 316.444 50.2496 316.444 48.1773V43.9489C316.444 41.6371 315.267 40.4272 312.877 40.4272H308.889V62.0244H310.09V52.2021H312.504C314.366 52.2021 315.267 53.0645 315.267 54.8853V62.0364H316.444V54.8493C316.456 52.8729 315.616 51.9386 314.282 51.6032ZM310.078 51.0402V41.5772H312.841C314.45 41.5772 315.219 42.3558 315.255 43.889V48.357C315.255 50.1418 314.354 51.0402 312.54 51.0402H310.078Z" fill="#EF8034"/>
<path d="M319.52 41.5772H323.039V62.0244H324.228V41.5772H327.784V40.4392H319.52V41.5772Z" fill="#EF8034"/>
<path d="M337.117 41.5772V40.4392H331.147V62.0244H337.117V60.8865H332.372V51.6031H337.117V50.4532H332.372V41.5772H337.117Z" fill="#EF8034"/>
<path d="M336.901 75.9795H209.85V76.794H336.901V75.9795Z" fill="#EF8034"/>
</svg>
